# xmcd CD database file
#
# Track frame offsets:
#	150
#	52639
#	115685
#	176892
#	224522
#	256484
#
# Disc length: 3936 seconds
#
# Revision: 0
# Processed by: cddbd v1.5.1PL0 Copyright (c) Steve Scherf et al.
# Submitted via: CDex 1.50
#
DISCID=500f5e06
DTITLE=FRANCK AMSALLEM - On Second Thought...
DYEAR=2000
DGENRE=Jazz
TTITLE0=On Second Thought
TTITLE1=Chanson Triste
TTITLE2=Thirty Two More Bars To Go
TTITLE3=After
TTITLE4=And Keep This Place In Mind For A Better One Is Hard To Find
TTITLE5=Affreusement Votre
EXTD=YEAR: 2000
EXTT0=
EXTT1=
EXTT2=
EXTT3=
EXTT4=
EXTT5=
PLAYORDER=
